<?xml version="1.0"?>
<svg xmlns="http://www.w3.org/2000/svg" xmlns:xlink="http://www.w3.org/1999/xlink" version="1.1" id="Capa_1" x="0px" y="0px" width="51px" height="51px" viewBox="0 0 63.75 63.75" style="enable-background:new 0 0 63.75 63.75;" xml:space="preserve"><g><g>
	<path d="M58.916,2.5H4.834C2.169,2.5,0,4.669,0,7.335v40.08c0,2.666,2.169,4.835,4.834,4.835h18.041v5H19.5c-1.104,0-2,0.896-2,2   s0.896,2,2,2h24.75c1.104,0,2-0.896,2-2s-0.896-2-2-2h-3.375v-5h18.041c2.664,0,4.834-2.169,4.834-4.835V7.335   C63.75,4.669,61.58,2.5,58.916,2.5z M36.875,57.25h-10v-5h10V57.25z M59.75,47.415c0,0.46-0.375,0.835-0.834,0.835H4.834   C4.375,48.25,4,47.875,4,47.415V7.335C4,6.875,4.375,6.5,4.834,6.5h54.082c0.459,0,0.834,0.375,0.834,0.835V47.415z" data-original="#000000" class="active-path" data-old_color="#000000" fill="#DEDFE0"/>
</g></g> </svg>
